<?xml version="1.0" encoding="UTF-8" standalone="no"?>
<!-- Generator: Adobe Illustrator 14.0.0, SVG Export Plug-In . SVG Version: 6.00 Build 43363)  -->

<svg
   xmlns:dc="http://purl.org/dc/elements/1.1/"
   xmlns:cc="http://creativecommons.org/ns#"
   xmlns:rdf="http://www.w3.org/1999/02/22-rdf-syntax-ns#"
   xmlns:svg="http://www.w3.org/2000/svg"
   xmlns="http://www.w3.org/2000/svg"
   xmlns:sodipodi="http://sodipodi.sourceforge.net/DTD/sodipodi-0.dtd"
   xmlns:inkscape="http://www.inkscape.org/namespaces/inkscape"
   version="1.1"
   id="Layer_1"
   x="0px"
   y="0px"
   width="300px"
   height="424.529px"
   viewBox="0 0 300 424.529"
   enable-background="new 0 0 300 424.529"
   xml:space="preserve"
   sodipodi:docname="placeholder.svg"
   inkscape:version="0.92.4 (5da689c313, 2019-01-14)"><metadata
   id="metadata3741"><rdf:RDF><cc:Work
       rdf:about=""><dc:format>image/svg+xml</dc:format><dc:type
         rdf:resource="http://purl.org/dc/dcmitype/StillImage" /><dc:title></dc:title></cc:Work></rdf:RDF></metadata><defs
   id="defs3739" /><sodipodi:namedview
   pagecolor="#ffffff"
   bordercolor="#666666"
   borderopacity="1"
   objecttolerance="10"
   gridtolerance="10"
   guidetolerance="10"
   inkscape:pageopacity="0"
   inkscape:pageshadow="2"
   inkscape:window-width="1920"
   inkscape:window-height="1046"
   id="namedview3737"
   showgrid="false"
   inkscape:zoom="0.96930954"
   inkscape:cx="-36.438145"
   inkscape:cy="278.34018"
   inkscape:window-x="-11"
   inkscape:window-y="-11"
   inkscape:window-maximized="1"
   inkscape:current-layer="Layer_1" />
<path
   fill="#FFFFFF"
   d="M261.803,351.699c1.323,2.798,0.762,6.122-1.399,8.335c-1.422,1.459-3.346,2.229-5.293,2.229  c-1.021,0-2.043-0.207-3.013-0.636l-49.543-22.06l-49.543,22.06c-1.917,0.851-4.107,0.851-6.024,0l-49.543-22.06l-49.543,22.059  c-2.828,1.26-6.145,0.622-8.305-1.592c-2.162-2.213-2.726-5.537-1.399-8.335l39.55-83.659c0.755-1.605,2.065-2.879,3.68-3.604  l19.794-8.803L67.125,198.49c-0.082-0.133-0.154-0.273-0.229-0.414c-6.773-13.213-10.305-28.106-10.216-43.052  c0.147-24.464,9.785-47.581,27.144-65.08c17.358-17.506,40.396-27.328,64.858-27.669c25.183-0.354,48.921,9.193,66.842,26.87  s27.795,41.267,27.795,66.441c0,14.96-3.436,29.261-10.215,42.489c-0.074,0.141-0.148,0.281-0.229,0.414l-34.095,57.145  l19.675,8.758c1.645,0.695,3.006,1.977,3.798,3.648L261.803,351.699z M239.892,339.983l-29.846-63.135l-18.904-8.416l-22.073,36.996  c-4.042,6.78-11.17,10.829-19.068,10.829c-7.897,0-15.025-4.049-19.067-10.829l-22.073-36.996l-18.897,8.416l-29.854,63.135  l34.324-15.286c1.917-0.852,4.106-0.852,6.023,0L150,346.755l49.543-22.059c1.917-0.852,4.107-0.852,6.024,0L239.892,339.983z   M220.031,191.116c5.634-11.065,8.483-23.013,8.483-35.53c0-21.178-8.307-41.03-23.385-55.901  c-15.079-14.871-35.057-22.888-56.25-22.606c-42.422,0.585-77.146,35.59-77.396,78.034c-0.074,12.68,2.774,24.798,8.481,36.004  l63.675,106.725c1.945,3.257,5.093,3.612,6.357,3.612c1.266,0,4.412-0.355,6.358-3.612L220.031,191.116z"
   id="path3728" />
<path
   d="m 210.046,270.64828 29.847,63.133 -34.324,-15.284 c -1.917,-0.853 -4.107,-0.853 -6.024,0 l -49.545,22.057 -49.543,-22.059 c -1.917,-0.852 -4.107,-0.852 -6.024,0 l -34.323,15.285 29.853,-63.133 18.897,-8.416 22.073,36.995 c 4.042,6.78 11.17,10.829 19.067,10.829 7.897,0 15.026,-4.049 19.068,-10.829 l 22.073,-36.995 z"
   id="path3730"
   style="fill:#666666;fill-opacity:1;stroke:#ed1c24;stroke-opacity:1;stroke-width:2;stroke-miterlimit:4;stroke-dasharray:none"
   inkscape:connector-curvature="0" />
<path
   fill="#EA6B68"
   d="M228.515,155.586c0,12.518-2.851,24.465-8.482,35.531l-63.674,106.725c-1.947,3.257-5.093,3.612-6.358,3.612  c-1.265,0-4.412-0.355-6.357-3.612L79.968,191.117c-5.706-11.207-8.558-23.324-8.482-36.004  c0.252-42.444,34.976-77.449,77.396-78.034c21.192-0.281,41.172,7.735,56.249,22.605  C220.21,114.556,228.515,134.408,228.515,155.586z M183.783,155.586c0-18.631-15.152-33.783-33.783-33.783  c-18.624,0-33.783,15.152-33.783,33.783c0,18.624,15.159,33.784,33.783,33.784C168.631,189.37,183.783,174.21,183.783,155.586z"
   id="path3732" />
<path
   fill="#FFFFFF"
   d="M150,121.803c18.631,0,33.783,15.152,33.783,33.783c0,18.624-15.152,33.783-33.783,33.783  c-18.624,0-33.783-15.159-33.783-33.783C116.217,136.955,131.376,121.803,150,121.803z M168.979,155.586  c0-10.466-8.513-18.979-18.979-18.979c-10.46,0-18.979,8.513-18.979,18.979c0,10.467,8.521,18.979,18.979,18.979  C160.467,174.566,168.979,166.053,168.979,155.586z"
   id="path3734" />
<path
   style="stroke-width:0.51583111"
   d="m 147.2661,300.56878 c -0.85113,-0.37829 -2.03136,-1.23967 -2.62274,-1.91418 -2.14691,-2.44869 -64.459284,-107.62308 -66.631257,-112.46405 -7.205864,-16.06064 -8.191623,-36.4869 -2.61017,-54.08621 3.832496,-12.08454 9.940558,-21.96603 19.473033,-31.50307 16.218994,-16.226747 35.357044,-23.811568 58.065274,-23.01251 20.87503,0.734552 37.29726,7.955 52.37983,23.03011 13.80897,13.80214 21.07696,29.43998 22.64942,48.73258 1.03108,12.65025 -0.84317,24.24152 -5.93467,36.70303 -1.40108,3.42916 -62.64382,107.04696 -66.39487,112.3348 -1.84694,2.60362 -5.36147,3.51836 -8.37385,2.1795 z m 10.85303,-111.98606 c 16.68423,-4.2268 27.88324,-20.59175 25.54565,-37.32947 -1.57937,-11.30862 -8.49334,-21.06559 -18.3446,-25.88778 -5.49825,-2.6914 -9.27762,-3.57929 -15.19643,-3.57012 -9.94813,0.0154 -16.80967,2.83738 -23.7794,9.77985 -6.93587,6.90874 -10.28604,14.72537 -10.28604,23.99946 0,9.27409 3.35017,17.09072 10.28604,23.99946 4.83496,4.81605 9.52668,7.57034 15.25391,8.95486 4.15049,1.00335 12.66321,1.03105 16.52087,0.0537 z"
   id="path3762"
   inkscape:connector-curvature="0" /><path
   style="fill:#ffaf9f;fill-opacity:1;stroke-width:3;stroke:#ed1c24;stroke-opacity:1;stroke-miterlimit:4;stroke-dasharray:none"
   d="m 147.22402,300.28135 c -0.59055,-0.23891 -1.66747,-1.13999 -2.39316,-2.00242 -2.03726,-2.42115 -45.776011,-75.7976 -61.176223,-102.62969 -6.149259,-10.71398 -7.272785,-13.24096 -9.150916,-20.58179 -1.942541,-7.59258 -2.454084,-12.94929 -2.132406,-22.32986 0.530225,-15.46209 4.226147,-27.16071 12.463342,-39.44997 9.883977,-14.746115 24.062173,-25.927114 39.774173,-31.366106 9.09739,-3.149228 13.04166,-3.723056 25.49434,-3.709017 12.26381,0.01383 16.43677,0.58592 24.93489,3.418467 21.82642,7.275057 41.4606,26.869506 48.86066,48.761766 2.84213,8.40814 3.81209,14.82259 3.80786,25.18193 -0.004,10.26412 -0.67267,14.84485 -3.42241,23.4516 -1.91289,5.98739 -2.64394,7.46428 -9.8397,19.87821 -24.58357,42.41093 -57.94756,98.13083 -59.99792,100.20019 -1.38417,1.397 -2.0351,1.671 -3.90493,1.64375 -1.23412,-0.018 -2.72704,-0.22816 -3.3176,-0.46706 z M 160.81094,187.865 c 13.2378,-4.60784 22.30948,-16.45336 23.18243,-30.27088 0.37723,-5.97097 -0.71266,-11.24159 -3.56426,-17.23648 -2.82676,-5.94267 -9.07435,-12.25107 -14.95907,-15.10466 -6.16431,-2.98916 -9.34397,-3.61933 -16.89388,-3.34815 -9.78757,0.35157 -14.72359,2.38095 -21.63257,8.89397 -4.0585,3.8259 -7.8315,9.46023 -9.42588,14.07595 -1.03524,2.99701 -1.20148,4.47747 -1.20148,10.69991 0,6.22244 0.16624,7.70289 1.20148,10.6999 3.16755,9.17001 12.16643,18.3692 20.97926,21.44626 4.30527,1.50322 4.39067,1.5148 11.6062,1.57404 5.8471,0.048 6.8448,-0.0852 10.70777,-1.42986 z"
   id="path3779"
   inkscape:connector-curvature="0" /></svg>