<?xml version="1.0" encoding="UTF-8" standalone="no"?>
<!-- Generator: Adobe Illustrator 14.0.0, SVG Export Plug-In . SVG Version: 6.00 Build 43363)  -->

<svg
   xmlns:dc="http://purl.org/dc/elements/1.1/"
   xmlns:cc="http://creativecommons.org/ns#"
   xmlns:rdf="http://www.w3.org/1999/02/22-rdf-syntax-ns#"
   xmlns:svg="http://www.w3.org/2000/svg"
   xmlns="http://www.w3.org/2000/svg"
   xmlns:sodipodi="http://sodipodi.sourceforge.net/DTD/sodipodi-0.dtd"
   xmlns:inkscape="http://www.inkscape.org/namespaces/inkscape"
   version="1.1"
   id="Layer_1"
   x="0px"
   y="0px"
   width="230"
   height="230"
   viewBox="0 0 230 230"
   enable-background="new 0 0 300 424.529"
   xml:space="preserve"
   sodipodi:docname="visuelEvenement2.svg"
   inkscape:version="0.92.4 (5da689c313, 2019-01-14)"><metadata
   id="metadata3741"><rdf:RDF><cc:Work
       rdf:about=""><dc:format>image/svg+xml</dc:format><dc:type
         rdf:resource="http://purl.org/dc/dcmitype/StillImage" /><dc:title></dc:title></cc:Work></rdf:RDF></metadata><defs
   id="defs3739" /><sodipodi:namedview
   pagecolor="#ffffff"
   bordercolor="#666666"
   borderopacity="1"
   objecttolerance="10"
   gridtolerance="10"
   guidetolerance="10"
   inkscape:pageopacity="0"
   inkscape:pageshadow="2"
   inkscape:window-width="1920"
   inkscape:window-height="1046"
   id="namedview3737"
   showgrid="false"
   inkscape:zoom="0.96930954"
   inkscape:cx="-36.438145"
   inkscape:cy="278.34018"
   inkscape:window-x="-11"
   inkscape:window-y="-11"
   inkscape:window-maximized="1"
   inkscape:current-layer="Layer_1" />
<path
   d="m 202.63756,226.62632 c 1.02272,2.16295 0.58905,4.73251 -1.08149,6.44323 -1.09925,1.12786 -2.58657,1.7231 -4.09166,1.7231 -0.78927,0 -1.57932,-0.16001 -2.32915,-0.49165 L 156.83681,217.24786 118.53836,234.301 c -1.4819,0.65785 -3.17484,0.65785 -4.65676,0 L 75.583162,217.24786 37.284717,234.30022 c -2.186141,0.97403 -4.750297,0.48084 -6.420051,-1.23067 -1.671301,-1.71072 -2.107293,-4.28028 -1.081475,-6.44323 l 30.573512,-64.67129 c 0.58364,-1.24072 1.596316,-2.22557 2.844766,-2.78601 l 15.301444,-6.80503 -26.358154,-44.17351 c -0.06339,-0.10277 -0.119053,-0.21104 -0.177026,-0.32004 C 46.731971,97.656343 44.001613,86.143543 44.070414,74.589771 44.184052,55.678255 51.634555,37.808017 65.05366,24.280689 78.471992,10.747949 96.281157,3.1552048 115.19113,2.8915991 c 19.46732,-0.2736542 37.81762,7.106506 51.67117,20.7714359 13.85354,13.664928 21.48648,31.900806 21.48648,51.361173 0,11.5646 -2.65615,22.61977 -7.89654,32.845462 -0.0571,0.10902 -0.1144,0.21722 -0.17703,0.32004 l -26.3566,44.17505 15.20945,6.77024 c 1.27164,0.53726 2.32373,1.52829 2.93599,2.82003 z m -16.93796,-9.05687 -23.07199,-48.80554 -14.61344,-6.50586 -17.06319,28.59919 c -3.12461,5.24118 -8.6348,8.37119 -14.74022,8.37119 -6.10465,0 -11.61484,-3.13001 -14.73944,-8.37119 l -17.063197,-28.59919 -14.608031,6.50586 -23.07817,48.80554 26.533633,-11.81661 c 1.481907,-0.65863 3.174079,-0.65863 4.655987,0 l 38.298448,17.05159 38.29844,-17.05236 c 1.4819,-0.65863 3.17485,-0.65863 4.65676,0 z M 170.34636,102.49013 c 4.35528,-8.553631 6.55765,-17.789844 6.55765,-27.465922 0,-16.371319 -6.42159,-31.717596 -18.07741,-43.213391 C 147.17001,20.315023 131.72633,14.117606 115.34341,14.335601 82.549748,14.787826 55.706901,41.847895 55.513642,74.658574 c -0.0572,9.802069 2.144397,19.169701 6.556105,27.832336 L 111.29272,184.993 c 1.50354,2.51778 3.93705,2.7922 4.91418,2.7922 0.97865,0 3.41062,-0.27442 4.91494,-2.7922 z"
   id="path3728"
   inkscape:connector-curvature="0"
   style="fill:#ffffff;stroke-width:0.77303445" />
<path
   d="m 162.62761,163.97132 23.07276,48.80399 -26.53363,-11.81507 c -1.48192,-0.65939 -3.17486,-0.65939 -4.65676,0 L 116.20999,218.01106 77.911542,200.9587 c -1.481908,-0.65863 -3.174853,-0.65863 -4.65676,0 l -26.53286,11.81583 23.077396,-48.80398 14.608031,-6.50586 17.063191,28.59841 c 3.12461,5.24116 8.63479,8.37118 14.73945,8.37118 6.10465,0 11.61561,-3.13002 14.74022,-8.37118 l 17.06319,-28.59841 z"
   id="path3730"
   style="fill:#666666;fill-opacity:1;stroke:#ed1c24;stroke-width:1.54606891;stroke-miterlimit:4;stroke-dasharray:none;stroke-opacity:1"
   inkscape:connector-curvature="0" />
<path
   d="m 176.90478,75.024208 c 0,9.676853 -2.20392,18.912291 -6.55688,27.466702 L 121.12571,184.993 c -1.5051,2.51778 -3.93706,2.7922 -4.91495,2.7922 -0.97789,0 -3.41063,-0.27442 -4.91418,-2.7922 L 62.072839,102.49091 C 57.661905,93.827499 55.457211,84.460643 55.515961,74.658574 55.710766,41.847895 82.553614,14.787826 115.34574,14.335601 c 16.38213,-0.217222 31.82736,5.979422 43.48241,17.474442 11.65658,11.496569 18.07663,26.842846 18.07663,43.214165 z m -34.57937,0 c 0,-14.402403 -11.71302,-26.115417 -26.11542,-26.115417 -14.39699,0 -26.115425,11.713014 -26.115425,26.115417 0,14.397002 11.718435,26.116202 26.115425,26.116202 14.4024,0 26.11542,-11.7192 26.11542,-26.116202 z"
   id="path3732"
   inkscape:connector-curvature="0"
   style="fill:#ea6b68;stroke-width:0.77303445" />
<path
   d="m 116.20999,48.908791 c 14.4024,0 26.11542,11.713014 26.11542,26.115417 0,14.397002 -11.71302,26.115422 -26.11542,26.115422 -14.39699,0 -26.115425,-11.71842 -26.115425,-26.115422 0,-14.402403 11.718435,-26.115417 26.115425,-26.115417 z m 14.67141,26.115417 c 0,-8.090575 -6.58084,-14.671415 -14.67141,-14.671415 -8.08594,0 -14.67142,6.58084 -14.67142,14.671415 0,8.091363 6.58703,14.671428 14.67142,14.671428 8.09135,7.75e-4 14.67141,-6.580065 14.67141,-14.671428 z"
   id="path3734"
   inkscape:connector-curvature="0"
   style="fill:#ffffff;stroke-width:0.77303445" />
<path
   style="stroke-width:0.39875522"
   d="m 114.09659,187.1009 c -0.65795,-0.29243 -1.57031,-0.95831 -2.02747,-1.47973 C 110.40948,183.72825 62.239874,102.42482 60.560864,98.68258 54.990483,86.267159 54.228457,70.476949 58.543113,56.87208 61.505764,47.530316 66.227506,39.891584 73.596437,32.519125 86.134278,19.975289 100.92865,14.111962 118.4829,14.729663 c 16.13711,0.567833 28.83206,6.149489 40.49141,17.803067 10.6748,10.669529 16.29321,22.758123 17.50878,37.671956 0.79706,9.779089 -0.6518,18.739539 -4.58771,28.372707 -1.08309,2.650857 -48.42583,82.750987 -51.32551,86.838677 -1.42776,2.01269 -4.14461,2.71981 -6.47328,1.68483 z m 8.38977,-86.56908 c 12.89748,-3.267467 21.5547,-15.918142 19.74766,-28.85697 -1.22091,-8.74195 -6.56564,-16.284424 -14.18101,-20.012146 -4.25034,-2.080545 -7.17192,-2.766914 -11.74736,-2.759827 -7.69024,0.01188 -12.99445,2.193393 -18.382293,7.560158 -5.361669,5.340692 -7.951465,11.383221 -7.951465,18.552409 0,7.1692 2.589796,13.211716 7.951465,18.552408 3.737593,3.722982 7.364453,5.852135 11.791793,6.922418 3.20847,0.77563 9.7891,0.79703 12.77121,0.0415 z"
   id="path3762"
   inkscape:connector-curvature="0" /><path
   style="fill:#ffaf9f;fill-opacity:1;stroke:#ed1c24;stroke-width:2.31910324;stroke-miterlimit:4;stroke-dasharray:none;stroke-opacity:1"
   d="m 114.06406,186.87871 c -0.45652,-0.18469 -1.28901,-0.88126 -1.84999,-1.54795 C 110.63919,183.45913 76.827631,126.73661 64.922736,105.99448 60.169147,97.712206 59.300623,95.758756 57.848763,90.08405 56.347112,84.214724 55.951673,80.073796 56.20034,72.822289 56.610223,60.869562 59.467297,51.82613 65.834933,42.32611 73.475587,30.926856 84.435821,22.283555 96.581737,18.079028 c 7.032603,-2.434463 10.081653,-2.878045 19.708003,-2.867193 9.48035,0.01063 12.70619,0.452937 19.27553,2.642589 16.87257,5.623871 32.05046,20.771054 37.77097,37.694526 2.19707,6.499784 2.94688,11.458375 2.9436,19.466494 -0.002,7.934526 -0.51999,11.475579 -2.64563,18.128898 -1.47873,4.628453 -2.04386,5.770141 -7.60643,15.366538 -19.00395,32.78511 -44.79546,75.85851 -46.38046,77.45821 -1.07001,1.07992 -1.5732,1.29173 -3.01865,1.27066 -0.95401,-0.0139 -2.10808,-0.17637 -2.56461,-0.36104 z m 10.50315,-86.90172 c 10.23328,-3.56202 17.246,-12.719015 17.92083,-23.400424 0.2916,-4.615775 -0.55092,-8.690138 -2.7553,-13.324393 -2.18519,-4.593895 -7.01479,-9.470505 -11.56389,-11.676428 -4.76522,-2.310724 -7.2232,-2.797866 -13.05954,-2.588236 -7.56613,0.271777 -11.38184,1.840557 -16.722723,6.875351 -3.13736,2.957543 -6.054018,7.313083 -7.286529,10.881192 -0.800276,2.316783 -0.928785,3.461234 -0.928785,8.271392 0,4.81017 0.128509,5.954608 0.928785,8.271391 2.448625,7.088732 9.405072,14.200032 16.217692,16.578704 3.32812,1.162041 3.39413,1.170991 8.97199,1.216781 4.52001,0.0371 5.29127,-0.0659 8.27747,-1.10533 z"
   id="path3779"
   inkscape:connector-curvature="0" /></svg>